<?xml version="1.0" encoding="UTF-8" standalone="no"?><svg xmlns="http://www.w3.org/2000/svg" xmlns:xlink="http://www.w3.org/1999/xlink" contentScriptType="application/ecmascript" contentStyleType="text/css" height="825px" preserveAspectRatio="none" style="width:390px;height:825px;" version="1.1" viewBox="0 0 390 825" width="390px" zoomAndPan="magnify"><defs><filter height="300%" id="f1nb2sovho50cg" width="300%" x="-1" y="-1"><feGaussianBlur result="blurOut" stdDeviation="2.0"/><feColorMatrix in="blurOut" result="blurOut2" type="matrix" values="0 0 0 0 0 0 0 0 0 0 0 0 0 0 0 0 0 0 .4 0"/><feOffset dx="4.0" dy="4.0" in="blurOut2" result="blurOut3"/><feBlend in="SourceGraphic" in2="blurOut3" mode="normal"/></filter></defs><g><!--cluster foo--><path d="M43,266 C43,263 45,261 48,261 C51,261 53,263 53,266 C53,263 55,261 58,261 C61,261 63,263 63,266 C63,263 65,261 68,261 C71,261 73,263 73,266 C73,263 75,261 78,261 C81,261 83,263 83,266 C83,263 85,261 88,261 C91,261 93,263 93,266 C93,263 95,261 98,261 C101,261 103,263 103,266 C103,263 105,261 108,261 C111,261 113,263 113,266 C113,263 115,261 118,261 C121,261 123,263 123,266 C123,263 125,261 128,261 C131,261 133,263 133,266 C133,263 135,261 138,261 C141,261 143,263 143,266 C143,263 145,261 148,261 C151,261 153,263 153,266 C153,263 155,261 158,261 C161,261 163,263 163,266 C163,263 165,261 168,261 C171,261 173,263 173,266 C173,263 175,261 178,261 C181,261 183,263 183,266 C183,263 185,261 188,261 C191,261 193,263 193,266 C193,263 195,261 198,261 C201,261 203,263 203,266 C203,263 205,261 208,261 C211,261 213,263 213,266 C213,263 215,261 218,261 C221,261 223,263 223,266 C223,263 225,261 228,261 C231,261 233,263 233,266 C233,263 235,261 238,261 C241,261 243,263 243,266 C243,263 245,261 248,261 C251,261 253,263 253,266 C253,263 255,261 258,261 C261,261 263,263 263,266 C263,263 265,261 268,261 C271,261 273,263 273,266 C273,263 275,261 278,261 C281,261 283,263 283,266 C283,263 285,261 288,261 C291,261 293,263 293,266 C293,263 295,261 298,261 C301,261 303,263 303,266 C303,263 305,261 308,261 C311,261 313,263 313,266 C313,263 315,261 318,261 C321,261 323,263 323,266 C323,263 325,261 328,261 C331,261 333,263 333,266 C333,263 335,261 338,261 C341,261 343,263 343,266 C343,263 345,261 348,261 C351,261 353,263 353,266 C353,263 355,261 358,261 C361,261 363,263 363,266 C363,263 365,261 368,261 C371,261 373,263 373,266 C376,266 378,268 378,271 C378,274 376,276 373,276 C376,276 378,278 378,281 C378,284 376,286 373,286 C376,286 378,288 378,291 C378,294 376,296 373,296 C376,296 378,298 378,301 C378,304 376,306 373,306 C376,306 378,308 378,311 C378,314 376,316 373,316 C376,316 378,318 378,321 C378,324 376,326 373,326 C376,326 378,328 378,331 C378,334 376,336 373,336 C376,336 378,338 378,341 C378,344 376,346 373,346 C373,349 370,351 368,351 C365,351 363,349 363,346 C363,349 360,351 358,351 C355,351 353,349 353,346 C353,349 350,351 348,351 C345,351 343,349 343,346 C343,349 340,351 338,351 C335,351 333,349 333,346 C333,349 330,351 328,351 C325,351 323,349 323,346 C323,349 320,351 318,351 C315,351 313,349 313,346 C313,349 310,351 308,351 C305,351 303,349 303,346 C303,349 300,351 298,351 C295,351 293,349 293,346 C293,349 290,351 288,351 C285,351 283,349 283,346 C283,349 280,351 278,351 C275,351 273,349 273,346 C273,349 270,351 268,351 C265,351 263,349 263,346 C263,349 260,351 258,351 C255,351 253,349 253,346 C253,349 250,351 248,351 C245,351 243,349 243,346 C243,349 240,351 238,351 C235,351 233,349 233,346 C233,349 230,351 228,351 C225,351 223,349 223,346 C223,349 220,351 218,351 C215,351 213,349 213,346 C213,349 210,351 208,351 C205,351 203,349 203,346 C203,349 200,351 198,351 C195,351 193,349 193,346 C193,349 190,351 188,351 C185,351 183,349 183,346 C183,349 180,351 178,351 C175,351 173,349 173,346 C173,349 170,351 168,351 C165,351 163,349 163,346 C163,349 160,351 158,351 C155,351 153,349 153,346 C153,349 150,351 148,351 C145,351 143,349 143,346 C143,349 140,351 138,351 C135,351 133,349 133,346 C133,349 130,351 128,351 C125,351 123,349 123,346 C123,349 120,351 118,351 C115,351 113,349 113,346 C113,349 110,351 108,351 C105,351 103,349 103,346 C103,349 100,351 98,351 C95,351 93,349 93,346 C93,349 90,351 88,351 C85,351 83,349 83,346 C83,349 80,351 78,351 C75,351 73,349 73,346 C73,349 70,351 68,351 C65,351 63,349 63,346 C63,349 60,351 58,351 C55,351 53,349 53,346 C53,349 50,351 48,351 C45,351 43,349 43,346 C40,346 38,344 38,341 C38,338 40,336 43,336 C40,336 38,334 38,331 C38,328 40,326 43,326 C40,326 38,324 38,321 C38,318 40,316 43,316 C40,316 38,314 38,311 C38,308 40,306 43,306 C40,306 38,304 38,301 C38,298 40,296 43,296 C40,296 38,294 38,291 C38,288 40,286 43,286 C40,286 38,284 38,281 C38,278 40,276 43,276 C40,276 38,274 38,271 C38,268 40,266 43,266 " fill="#FFFFFF" filter="url(#f1nb2sovho50cg)" style="stroke: #000000; stroke-width: 1.5;"/><text fill="#000000" font-family="sans-serif" font-size="14" font-weight="bold" lengthAdjust="spacingAndGlyphs" textLength="23" x="195.5" y="288.0439">foo</text><!--entity rpc_server--><rect fill="#FEFECE" filter="url(#f1nb2sovho50cg)" height="42.1201" style="stroke: #000000; stroke-width: 1.5;" width="94" x="264" y="297"/><polygon fill="#FEFECE" points="341,302,341,316,353,316,353,308,347,302,341,302" style="stroke: #000000; stroke-width: 1.5;"/><line style="stroke: #000000; stroke-width: 1.5;" x1="347" x2="347" y1="302" y2="308"/><line style="stroke: #000000; stroke-width: 1.5;" x1="353" x2="347" y1="308" y2="308"/><text fill="#000000" font-family="sans-serif" font-size="14" lengthAdjust="spacingAndGlyphs" textLength="64" x="274" y="326.0439">rpc server</text><!--entity RESTful--><rect fill="#FEFECE" filter="url(#f1nb2sovho50cg)" height="42.1201" style="stroke: #000000; stroke-width: 1.5;" width="82" x="56" y="297"/><polygon fill="#FEFECE" points="121,302,121,316,133,316,133,308,127,302,121,302" style="stroke: #000000; stroke-width: 1.5;"/><line style="stroke: #000000; stroke-width: 1.5;" x1="127" x2="127" y1="302" y2="308"/><line style="stroke: #000000; stroke-width: 1.5;" x1="133" x2="127" y1="308" y2="308"/><text fill="#000000" font-family="sans-serif" font-size="14" lengthAdjust="spacingAndGlyphs" textLength="52" x="66" y="326.0439">RESTful</text><!--entity mvc--><rect fill="#FEFECE" filter="url(#f1nb2sovho50cg)" height="42.1201" style="stroke: #000000; stroke-width: 1.5;" width="55" x="173.5" y="297"/><polygon fill="#FEFECE" points="211.5,302,211.5,316,223.5,316,223.5,308,217.5,302,211.5,302" style="stroke: #000000; stroke-width: 1.5;"/><line style="stroke: #000000; stroke-width: 1.5;" x1="217.5" x2="217.5" y1="302" y2="308"/><line style="stroke: #000000; stroke-width: 1.5;" x1="223.5" x2="217.5" y1="308" y2="308"/><text fill="#000000" font-family="sans-serif" font-size="14" lengthAdjust="spacingAndGlyphs" textLength="25" x="183.5" y="326.0439">mvc</text><!--entity android--><ellipse cx="46" cy="18" fill="#FEFECE" filter="url(#f1nb2sovho50cg)" rx="8" ry="8" style="stroke: #A80036; stroke-width: 2.0;"/><path d="M46,26 L46,53 M33,34 L59,34 M46,53 L33,68 M46,53 L59,68 " fill="none" filter="url(#f1nb2sovho50cg)" style="stroke: #A80036; stroke-width: 2.0;"/><text fill="#000000" font-family="sans-serif" font-size="14" lengthAdjust="spacingAndGlyphs" textLength="80" x="6" y="91.0439">android user</text><!--entity apple--><ellipse cx="155" cy="18" fill="#FEFECE" filter="url(#f1nb2sovho50cg)" rx="8" ry="8" style="stroke: #A80036; stroke-width: 2.0;"/><path d="M155,26 L155,53 M142,34 L168,34 M155,53 L142,68 M155,53 L168,68 " fill="none" filter="url(#f1nb2sovho50cg)" style="stroke: #A80036; stroke-width: 2.0;"/><text fill="#000000" font-family="sans-serif" font-size="14" lengthAdjust="spacingAndGlyphs" textLength="67" x="121.5" y="91.0439">apple user</text><!--entity browser--><ellipse cx="249" cy="18" fill="#FEFECE" filter="url(#f1nb2sovho50cg)" rx="8" ry="8" style="stroke: #A80036; stroke-width: 2.0;"/><path d="M249,26 L249,53 M236,34 L262,34 M249,53 L236,68 M249,53 L262,68 " fill="none" filter="url(#f1nb2sovho50cg)" style="stroke: #A80036; stroke-width: 2.0;"/><text fill="#000000" font-family="sans-serif" font-size="14" lengthAdjust="spacingAndGlyphs" textLength="50" x="224" y="91.0439">browser</text><!--entity server--><rect fill="#FEFECE" filter="url(#f1nb2sovho50cg)" height="39.1201" style="stroke: #A80036; stroke-width: 1.5;" width="89" x="110.5" y="155"/><text fill="#000000" font-family="sans-serif" font-size="14" lengthAdjust="spacingAndGlyphs" textLength="69" x="120.5" y="181.0439">web server</text><!--entity rpc_client--><rect fill="#FEFECE" filter="url(#f1nb2sovho50cg)" height="39.1201" style="stroke: #A80036; stroke-width: 1.5;" width="77" x="272.5" y="155"/><text fill="#000000" font-family="sans-serif" font-size="14" lengthAdjust="spacingAndGlyphs" textLength="57" x="282.5" y="181.0439">rpc client</text><!--entity db--><path d="M145,775 C145,765 163,765 163,765 C163,765 181,765 181,775 L181,803.1201 C181,813.1201 163,813.1201 163,813.1201 C163,813.1201 145,813.1201 145,803.1201 L145,775 " fill="#FEFECE" filter="url(#f1nb2sovho50cg)" style="stroke: #000000; stroke-width: 1.5;"/><path d="M145,775 C145,785 163,785 163,785 C163,785 181,785 181,775 " fill="none" style="stroke: #000000; stroke-width: 1.5;"/><text fill="#000000" font-family="sans-serif" font-size="14" lengthAdjust="spacingAndGlyphs" textLength="16" x="155" y="805.0439">db</text><!--entity queue--><path d="M246,774.5 L296,774.5 C301,774.5 301,789.0601 301,789.0601 C301,789.0601 301,803.6201 296,803.6201 L246,803.6201 C241,803.6201 241,789.0601 241,789.0601 C241,789.0601 241,774.5 246,774.5 " fill="#FEFECE" filter="url(#f1nb2sovho50cg)" style="stroke: #A80036; stroke-width: 1.5;"/><path d="M296,774.5 C291,774.5 291,789.0601 291,789.0601 C291,803.6201 296,803.6201 296,803.6201 " fill="none" style="stroke: #A80036; stroke-width: 1.5;"/><text fill="#000000" font-family="sans-serif" font-size="14" lengthAdjust="spacingAndGlyphs" textLength="40" x="246" y="795.5439">queue</text><!--entity service_api--><rect fill="#FEFECE" filter="url(#f1nb2sovho50cg)" height="42.1201" style="stroke: #000000; stroke-width: 1.5;" width="98" x="152" y="420"/><polygon fill="#FEFECE" points="233,425,233,439,245,439,245,431,239,425,233,425" style="stroke: #000000; stroke-width: 1.5;"/><line style="stroke: #000000; stroke-width: 1.5;" x1="239" x2="239" y1="425" y2="431"/><line style="stroke: #000000; stroke-width: 1.5;" x1="245" x2="239" y1="431" y2="431"/><text fill="#000000" font-family="sans-serif" font-size="14" lengthAdjust="spacingAndGlyphs" textLength="68" x="162" y="449.0439">service api</text><!--entity service_impl--><rect fill="#FEFECE" filter="url(#f1nb2sovho50cg)" height="42.1201" style="stroke: #000000; stroke-width: 1.5;" width="104" x="149" y="523"/><polygon fill="#FEFECE" points="236,528,236,542,248,542,248,534,242,528,236,528" style="stroke: #000000; stroke-width: 1.5;"/><line style="stroke: #000000; stroke-width: 1.5;" x1="242" x2="242" y1="528" y2="534"/><line style="stroke: #000000; stroke-width: 1.5;" x1="248" x2="242" y1="534" y2="534"/><text fill="#000000" font-family="sans-serif" font-size="14" lengthAdjust="spacingAndGlyphs" textLength="74" x="159" y="552.0439">service impl</text><!--entity lang--><rect fill="#FEFECE" filter="url(#f1nb2sovho50cg)" height="42.1201" style="stroke: #000000; stroke-width: 1.5;" width="57" x="172.5" y="644"/><polygon fill="#FEFECE" points="212.5,649,212.5,663,224.5,663,224.5,655,218.5,649,212.5,649" style="stroke: #000000; stroke-width: 1.5;"/><line style="stroke: #000000; stroke-width: 1.5;" x1="218.5" x2="218.5" y1="649" y2="655"/><line style="stroke: #000000; stroke-width: 1.5;" x1="224.5" x2="218.5" y1="655" y2="655"/><text fill="#000000" font-family="sans-serif" font-size="14" lengthAdjust="spacingAndGlyphs" textLength="27" x="182.5" y="673.0439">lang</text><!--link android to server--><path d="M83.817,94.154 C102.3864,114.853 123.815,138.739 138.27,154.851 " fill="none" id="android-server" style="stroke: #A80036; stroke-width: 1.0;"/><!--link apple to server--><path d="M155,94.154 C155,114.853 155,138.739 155,154.851 " fill="none" id="apple-server" style="stroke: #A80036; stroke-width: 1.0;"/><!--link browser to server--><path d="M223.81,84.56 C206.407,107.053 183.879,136.172 169.43,154.848 " fill="none" id="browser-server" style="stroke: #A80036; stroke-width: 1.0;"/><!--link server to mvc--><path d="M161.108,194.29 C169.76,220.903 185.518,269.376 194.42,296.758 " fill="none" id="server-mvc" style="stroke: #A80036; stroke-width: 1.0;"/><text fill="#000000" font-family="sans-serif" font-size="13" lengthAdjust="spacingAndGlyphs" textLength="19" x="178" y="239.8979">VO</text><!--link rpc_client to rpc_server--><path d="M311,194.29 C311,220.903 311,269.376 311,296.758 " fill="none" id="rpc_client-rpc_server" style="stroke: #A80036; stroke-width: 1.0;"/><text fill="#000000" font-family="sans-serif" font-size="13" lengthAdjust="spacingAndGlyphs" textLength="19" x="312" y="239.8979">VO</text><!--link server to RESTful--><path d="M147.298,194.29 C136.39,220.903 116.521,269.376 105.297,296.758 " fill="none" id="server-RESTful" style="stroke: #A80036; stroke-width: 1.0;"/><text fill="#000000" font-family="sans-serif" font-size="13" lengthAdjust="spacingAndGlyphs" textLength="19" x="136" y="239.8979">VO</text><!--link rpc_server to service_api--><path d="M292.588,339.253 C272.283,361.589 239.801,397.319 219.472,419.681 " fill="none" id="rpc_server-service_api" style="stroke: #A80036; stroke-width: 1.0;"/><text fill="#000000" font-family="sans-serif" font-size="13" lengthAdjust="spacingAndGlyphs" textLength="26" x="263" y="386.8979">DTO</text><!--link RESTful to service_api--><path d="M114.407,339.253 C133.605,361.589 164.315,397.319 183.536,419.681 " fill="none" id="RESTful-service_api" style="stroke: #A80036; stroke-width: 1.0;"/><text fill="#000000" font-family="sans-serif" font-size="13" lengthAdjust="spacingAndGlyphs" textLength="26" x="157" y="386.8979">DTO</text><!--link mvc to service_api--><path d="M201,339.253 C201,361.589 201,397.319 201,419.681 " fill="none" id="mvc-service_api" style="stroke: #A80036; stroke-width: 1.0;"/><text fill="#000000" font-family="sans-serif" font-size="13" lengthAdjust="spacingAndGlyphs" textLength="26" x="202" y="386.8979">DTO</text><!--link service_api to service_impl--><path d="M201,462.439 C201,480.077 201,505.408 201,522.936 " fill="none" id="service_api-service_impl" style="stroke: #A80036; stroke-width: 1.0;"/><!--link service_impl to lang--><path d="M201,565.187 C201,587.069 201,621.793 201,643.714 " fill="none" id="service_impl-lang" style="stroke: #A80036; stroke-width: 1.0;"/><text fill="#000000" font-family="sans-serif" font-size="13" lengthAdjust="spacingAndGlyphs" textLength="26" x="202" y="610.8979">DTO</text><!--link lang to db--><path d="M194.725,686.146 C187.979,707.803 177.273,742.1755 170.192,764.9093 " fill="none" id="lang-db" style="stroke: #A80036; stroke-width: 1.0;"/><text fill="#000000" font-family="sans-serif" font-size="13" lengthAdjust="spacingAndGlyphs" textLength="19" x="187" y="731.8979">PO</text><!--link service_impl to db--><path d="M182.028,565.073 C165.711,583.824 143.368,613.443 134,644 C121.18,685.815 138.552,736.2308 151.417,764.9575 " fill="none" id="service_impl-db" style="stroke: #A80036; stroke-width: 1.0; stroke-dasharray: 1.0,3.0;"/><text fill="#000000" font-family="sans-serif" font-size="13" lengthAdjust="spacingAndGlyphs" textLength="19" x="135" y="671.3979">PO</text><!--link lang to queue--><path d="M212.559,686.146 C226.849,711.052 250.788,752.7733 263.123,774.2717 " fill="none" id="lang-queue" style="stroke: #A80036; stroke-width: 1.0;"/><text fill="#000000" font-family="sans-serif" font-size="13" lengthAdjust="spacingAndGlyphs" textLength="19" x="242" y="731.8979">PO</text><!--link service_impl to queue--><path d="M218.197,565.357 C224.841,574.045 232.026,584.574 237,595 C261.001,645.31 262.218,660.804 270,716 C272.845,736.1774 272.472,759.8497 271.826,774.3863 " fill="none" id="service_impl-queue" style="stroke: #A80036; stroke-width: 1.0; stroke-dasharray: 1.0,3.0;"/><text fill="#000000" font-family="sans-serif" font-size="13" lengthAdjust="spacingAndGlyphs" textLength="19" x="266" y="671.3979">PO</text><!--
@startuml
actor android [
    android user
]
actor apple [
    apple user
]
actor browser
agent server [
    web server
]
agent rpc_client [
    rpc client
]
database db
queue queue
cloud foo  {
    artifact rpc_server [
        rpc server
    ]
    artifact RESTful
    artifact mvc
}
artifact service_api [
     service api
]
artifact service_impl [
    service impl
]
artifact lang
android - - server
apple - - server
browser - - server
server - - mvc : VO
rpc_client - - rpc_server : VO
server - - RESTful : VO
rpc_server - - service_api : DTO
RESTful - - service_api : DTO
mvc - - service_api : DTO
service_api - - service_impl
service_impl - - lang : DTO
lang - - db : PO
service_impl ~~ db : PO
lang - - queue : PO
service_impl ~~ queue : PO
@enduml

PlantUML version 1.2018.01(Mon Jan 29 02:08:22 CST 2018)
(GPL source distribution)
Java Runtime: OpenJDK Runtime Environment
JVM: OpenJDK 64-Bit Server VM
Java Version: 1.8.0_152-release-1024-b8
Operating System: Windows 7
OS Version: 6.1
Default Encoding: GBK
Language: zh
Country: CN
--></g></svg>